<svg version="1.2" baseProfile="tiny-ps" xmlns="http://www.w3.org/2000/svg" viewBox="0 0 1505 304" width="1505" height="304">
	<title>annual-report_aoda-1-pdf-svg</title>
	<defs>
		<clipPath clipPathUnits="userSpaceOnUse" id="cp1">
			<path d="M-6669.9 -1087.33L5786.97 -1087.33L5786.97 7023.92L-6669.9 7023.92L-6669.9 -1087.33Z" />
		</clipPath>
	</defs>
	<style>
		tspan { white-space:pre }
		.shp0 { fill: #787d83 } 
		.shp1 { fill: #ee3224 } 
		.shp2 { fill: #090204 } 
	</style>
	<g id="Clip-Path: Page 1" clip-path="url(#cp1)">
		<g id="Page 1">
			<path id="Path 3" class="shp0" d="M1059.02 176.29C1058.44 210.67 1058.44 239.44 1033.35 266.24C1010.82 290.57 976.16 303.65 943.2 303.65C878.42 303.65 826.02 264.02 826.02 196.37C826.02 127.67 877.02 86.34 943.78 86.34C980.66 86.34 1031.41 104.49 1048.04 140.51L975.87 166.78C969.98 156.2 959 150.6 946.58 150.6C918.98 150.6 903.8 174.07 903.8 199.46C903.8 222.64 918.45 244.46 943.49 244.46C955.62 244.46 971.09 238.86 974.76 226.02L939.86 226.02L939.86 176.29" />
			<path id="Path 4" class="shp1" d="M211.59 39.36C211.59 60.61 194.19 77.89 172.68 77.89C151.22 77.89 133.81 60.61 133.81 39.36C133.81 18.02 151.22 0.79 172.68 0.79C194.19 0.79 211.59 18.02 211.59 39.36Z" />
			<path id="Path 5" fill-rule="evenodd" class="shp2" d="M160.59 119.51L171.32 90.25L229.91 90.25L307.01 300.52L226.96 300.52M60.39 138.1L120.09 300.52L0.79 300.52L60.39 138.1ZM67.25 119.51L77.98 90.25L136.57 90.25L213.67 300.52L133.62 300.52L67.25 119.51Z" />
			<path id="Path 6" fill-rule="evenodd" class="shp0" d="M849.18 300.32L767.44 300.32L760.38 274.06L702.08 274.06L695.9 300.32L557.99 300.32L547.54 184.93L546.14 184.93C544.74 191.93 543.34 199.17 541.07 205.89L510.37 300.32L465.32 300.32L437.72 211.2C435.45 202.26 433.46 193.91 432.88 184.93L430.37 184.93C429.79 193.33 429.26 201.97 428.44 210.38L419.35 300.32L344.72 300.32L379.08 89.67L458.5 89.67L487.85 200.33L489.83 200.33C491.23 191.11 492.63 181.31 495.14 172.38L519.12 89.67L597.72 89.67L626.72 264.6L688.02 89.67L773.38 89.67M746.89 224.04L737.85 186.91C735.63 177.98 734.23 168.76 732.83 159.82L729.97 159.82L715.91 224.04L746.89 224.04ZM1504.94 300.32L1423.25 300.32L1416.24 274.06L1357.89 274.06L1351.71 300.32L1203.93 300.32L1136.02 189.71L1133.8 189.71C1136.31 204.24 1138.58 217.91 1138.58 231.86L1138.58 300.32L1064.77 300.32L1064.77 89.67L1138.87 89.67L1208.14 206.46L1210.41 206.46C1207.32 188.89 1203.93 170.69 1203.93 152.82L1203.93 89.67L1277.75 89.67L1277.75 278.21L1343.83 89.67L1429.14 89.67L1504.94 300.32ZM1402.7 224.04L1393.66 186.91C1391.44 177.98 1390.04 168.76 1388.64 159.82L1385.78 159.82L1371.72 224.04L1402.7 224.04Z" />
		</g>
	</g>
</svg>